# xmcd
#
# Track frame offsets:
#	150
#	13062
#	27727
#	43687
#	57192
#	71951
#	87239
#	105511
#	117508
#	133409
#	150927
#	166570
#	184260
#	198245
#	210461
#	235992
#	251784
#	271251
#	286206
#
# Disc length: 4068 seconds
#
# Revision: 1
# Processed by: cddbd v1.5.2PL0 Copyright (c) Steve Scherf et al.
# Submitted via: audiograbber 1.83.01
#
DISCID=120fe213
DTITLE=Various Artist - Promo Only Country Radio July 2017
DYEAR=2017
DGENRE=Country
TTITLE0=Todd O'Neill - Love Again
TTITLE1=Jason Aldean - They Don't Know (Promo Only Clean Edit)
TTITLE2=Russell Dickerson - Yours
TTITLE3=Waterloo Revival - What Guy Wouldn't
TTITLE4=MICKS - Chasing Forever
TTITLE5=Jon Pardi - Heartache On The Dance Floor
TTITLE6=Linde LaChance - Where We'd Be
TTITLE7=Amy Jack - Bounce Back
TTITLE8=Aleyce Simmonds - Anchor
TTITLE9=Lindsay Ell - Waiting On You
TTITLE10=Josh Turner - All About You
TTITLE11=Ashleigh Dallas - Feel The Beat
TTITLE12=Chris Janson - Fix A Drink (Promo Only Clean Edit)
TTITLE13=Josh Thompson - Daddy Had A Beer
TTITLE14=Wyatt Easterling f. Kate - Carry The Load
TTITLE15=Joe Schmidt - Over Time
TTITLE16=Billy Ray Cyrus and The Silver Mullet Band - Achy Breaky Heart 25th
TTITLE17=Lauren Alaina - Doin' Fine
TTITLE18=Leslie Cours Mather - We Are America
EXTD=
EXTT0=
EXTT1=
EXTT2=
EXTT3=
EXTT4=
EXTT5=
EXTT6=
EXTT7=
EXTT8=
EXTT9=
EXTT10=
EXTT11=
EXTT12=
EXTT13=
EXTT14=
EXTT15=
EXTT16=
EXTT17=
EXTT18=
PLAYORDER=
